<?xml version="1.0" standalone="no"?><!DOCTYPE svg PUBLIC "-//W3C//DTD SVG 1.1//EN" "http://www.w3.org/Graphics/SVG/1.1/DTD/svg11.dtd"><svg t="1612174948052" class="icon" viewBox="0 0 1024 1024" version="1.1" xmlns="http://www.w3.org/2000/svg" p-id="9723" xmlns:xlink="http://www.w3.org/1999/xlink" width="200" height="200"><defs><style type="text/css"></style></defs><path d="M888.152521 253.372661 646.620535 63.046918l-1.087774 1.37737 0-1.37737-36.836977 0L146.697595 63.046918c-6.78145 0-12.279674 5.498224-12.279674 12.279674l0 873.346815c0 6.78145 5.498224 12.279674 12.279674 12.279674l306.975487 0 0-0.793062 423.627277 0c6.78145 0 12.279674-5.498224 12.279674-12.279674L889.580033 382.302079l0-92.093465 0-9.66922 0-27.167756L888.152521 253.371638zM645.533784 109.091604l183.103248 144.281057L645.533784 253.372661 645.533784 109.091604zM852.743056 382.302079 852.743056 923.32202 435.248454 923.32202l0 0.793062-263.992533 0L171.25592 98.348935 608.696808 98.348935l0 155.023726 0 36.836977 36.836977 0 207.209272 0L852.743056 382.302079z" p-id="9724"></path><path d="M291.492352 386.402467l446.37742 0 0 36.836977-446.37742 0 0-36.836977Z" p-id="9725"></path><path d="M291.492352 483.099786l446.144106 0 0 36.836977-446.144106 0 0-36.836977Z" p-id="9726"></path><path d="M291.492352 571.72629l446.144106 0 0 36.836977-446.144106 0 0-36.836977Z" p-id="9727"></path><path d="M291.486212 668.814512l239.567237 0 0 38.371936-239.567237 0 0-38.371936Z" p-id="9728"></path><path d="M325.159126 327.045591l17.108656-59.181891c0.732687-2.508123 1.521656-5.545296 2.365884-9.113565 0.255827 1.130753 1.100054 4.167926 2.530636 9.113565l16.999163 59.181891 10.287297 0 22.11467-77.674057-10.727319 0-12.653181 49.910737c-1.650593 6.357801-2.990101 11.992125-4.016477 16.901948-1.284249-8.583492-3.374864-17.749246-6.27082-27.498284l-11.553127-39.313378-12.873192 0-15.34857 52.453652c-0.367367 1.270946-1.577938 6.057973-3.63069 14.358009-0.953721-5.262864-2.090615-10.56052-3.41068-15.895015l-12.267395-50.916647-10.94733 0 21.400403 77.674057L325.159126 327.046614z" p-id="9729"></path><path d="M405.313677 270.778076l9.902534 0 0 56.268538-9.902534 0 0-56.268538Z" p-id="9730"></path><path d="M405.313677 249.372557l9.902534 0 0 10.967796-9.902534 0 0-10.967796Z" p-id="9731"></path><path d="M440.246281 304.740586 447.233416 298.276361 466.54218 327.045591 478.75534 327.045591 454.164269 291.6525 476.499973 270.778076 463.68204 270.778076 440.246281 293.666366 440.246281 249.372557 430.343747 249.372557 430.343747 327.045591 440.246281 327.045591Z" p-id="9732"></path><path d="M486.677776 249.372557l9.902534 0 0 10.967796-9.902534 0 0-10.967796Z" p-id="9733"></path><path d="M486.677776 270.778076l9.902534 0 0 56.268538-9.902534 0 0-56.268538Z" p-id="9734"></path></svg>